<?xml version="1.0" encoding="UTF-8"?>
<svg version="1.1" xmlns="http://www.w3.org/2000/svg" width="512" height="512">
<path d="M0 0 C0.80566406 0.39703125 1.61132812 0.7940625 2.44140625 1.203125 C14.02611524 7.23404434 21.75684633 16.5903747 26 29 C29.63967614 41.77006372 28.96721274 55.73495805 22.875 67.6875 C15.52409668 79.34736088 4.2542096 88.88254164 -5.44360352 98.55712891 C-7.10029738 100.2135403 -8.75677028 101.87017272 -10.41304016 103.52700806 C-14.88533541 107.99958892 -19.36069591 112.46909099 -23.83663297 116.93802691 C-28.04736965 121.14312717 -32.25578222 125.35055108 -36.46421491 129.55795698 C-44.79295129 137.88451154 -53.12391249 146.20883635 -61.45629883 154.53173828 C-69.54439315 162.6106359 -77.63142332 170.69059632 -85.71704102 178.77197266 C-86.21649176 179.27116068 -86.71594251 179.7703487 -87.23052812 180.28466363 C-89.73643364 182.78926399 -92.24231843 185.2938851 -94.74819291 187.79851651 C-115.49558234 208.53556044 -136.24663137 229.26893997 -157 250 C-155.24413262 253.72558347 -152.94681669 256.49715246 -150.14453125 259.48046875 C-149.62800491 260.03494186 -149.11147858 260.58941498 -148.57929993 261.16069031 C-140.17458275 270.09590409 -131.39322333 278.67285427 -122.6875 287.3125 C-119.12594028 290.84729306 -115.56783692 294.3855148 -112.01171875 297.92578125 C-111.21054123 298.71866043 -110.40936371 299.51153961 -109.58390808 300.32844543 C-106.12037737 303.77695346 -102.7378135 307.24003055 -99.55200195 310.94799805 C-95.33396199 315.84790033 -90.74725929 320.35841175 -86.15625 324.90625 C-84.7380835 326.31862932 -83.31991993 327.73101161 -81.90192413 329.14356232 C-79.43676868 331.59787501 -76.96829491 334.04884533 -74.5 336.5 C-71.55014369 339.42937203 -68.60092161 342.35936285 -65.65563965 345.29333496 C-63.82931571 347.11220613 -62.00074639 348.92882652 -60.16955566 350.74279785 C-55.87701288 355.01841567 -51.76805228 359.36034127 -47.82067871 363.95446777 C-44.11718616 368.11534104 -40.11218527 371.98751392 -36.15625 375.90625 C-34.7380835 377.31862932 -33.31991993 378.73101161 -31.90192413 380.14356232 C-29.43676868 382.59787501 -26.96829491 385.04884533 -24.5 387.5 C-21.55014369 390.42937203 -18.60092161 393.35936285 -15.65563965 396.29333496 C-13.82931571 398.11220613 -12.00074639 399.92882652 -10.16955566 401.74279785 C-5.76769342 406.1273041 -1.51188025 410.56474387 2.51231384 415.29995728 C4.42058919 417.48062529 6.47854504 419.46671562 8.578125 421.46069336 C19.29358881 431.67034498 25.84893535 443.24968364 26.47265625 458.36474609 C26.64821937 472.47563189 21.9829129 484.88915724 12.25 495.25 C0.62864268 506.18644843 -11.65975182 508.78781576 -27.140625 508.34765625 C-39.72249323 507.67102918 -50.28238892 501.8371268 -59 493 C-60.69046358 491.3114605 -62.38109649 489.6230905 -64.0718689 487.93486023 C-65.07999466 486.92820023 -66.08811726 485.92153706 -67.09623718 484.91487122 C-67.89479913 484.11747245 -67.89479913 484.11747245 -68.70949364 483.30396461 C-81.00713857 471.0240638 -93.30187042 458.74124975 -105.59499168 446.45682049 C-112.69673564 439.36023371 -119.79941862 432.2645915 -126.90429688 425.17114258 C-133.11468582 418.97073872 -139.32329895 412.76856305 -145.52981055 406.56427795 C-148.81005273 403.2853352 -152.09115834 400.00726742 -155.37440109 396.73132896 C-158.46443046 393.64811976 -161.55206894 390.56253588 -164.63794136 387.47516632 C-165.76614146 386.34723975 -166.89518899 385.22016004 -168.02517891 384.09402657 C-173.30812245 378.82822048 -178.49487772 373.54329531 -183.34966278 367.87366772 C-186.44781735 364.35625799 -189.80286727 361.09291347 -193.13500977 357.79907227 C-194.30714523 356.63394608 -194.30714523 356.63394608 -195.50296021 355.44528198 C-197.18677204 353.77190877 -198.87168182 352.09963974 -200.55758858 350.42837715 C-203.23032553 347.77780979 -205.89895123 345.12316753 -208.56639099 342.4672699 C-216.14637967 334.92073931 -223.73037359 327.37828367 -231.32495117 319.84643555 C-235.9822851 315.22747585 -240.63157851 310.60050741 -245.27656364 305.96912956 C-247.04114389 304.21257436 -248.80849123 302.45879414 -250.57870674 300.70791817 C-253.05760113 298.25564564 -255.52692115 295.79408878 -257.99438477 293.33032227 C-258.71922562 292.61783829 -259.44406647 291.90535431 -260.19087219 291.17127991 C-269.26901615 282.05735604 -277.27889356 270.22028473 -278 257 C-278.05027344 256.20464844 -278.10054688 255.40929687 -278.15234375 254.58984375 C-278.66937787 240.21629531 -274.2317437 226.75969624 -264.5642395 216.03936768 C-260.29276957 211.50885626 -255.85300856 207.15038883 -251.41015625 202.7890625 C-249.77898327 201.16656381 -248.14907643 199.54279131 -246.52037048 197.91781616 C-242.25428246 193.6688509 -237.97008304 189.43861133 -233.68206787 185.21179199 C-230.19229254 181.76568052 -226.71562219 178.30651415 -223.23957157 174.84656715 C-219.07148271 170.6981482 -214.89802859 166.55514946 -210.72265625 162.4140625 C-209.93518572 161.63301777 -209.14771519 160.85197304 -208.33638191 160.04726028 C-206.09040622 157.82244534 -203.84092561 155.60124247 -201.59008789 153.38134766 C-200.93789276 152.73498352 -200.28569763 152.08861938 -199.61373901 151.42266846 C-196.55872075 148.41686937 -193.4650111 145.50835785 -190.21128845 142.7182312 C-184.89638646 138.11586454 -179.98436052 133.10811693 -175.02929688 128.12695312 C-173.94773904 127.04347225 -172.86595045 125.96022168 -171.78395081 124.87718201 C-169.46850119 122.55858986 -167.15460982 120.23845804 -164.8419342 117.917099 C-161.17894061 114.24049445 -157.5120566 110.56778629 -153.84460449 106.89562988 C-146.0600932 99.10005487 -138.27982379 91.30025263 -130.5 83.5 C-122.09879591 75.0767354 -113.69685164 66.65421708 -105.2900033 58.23658514 C-101.65042783 54.59205165 -98.01329886 50.94509992 -94.37807465 47.2962265 C-92.10999781 45.02064847 -89.83981341 42.74718178 -87.56907463 40.47426033 C-86.52337224 39.42669865 -85.4785281 38.37827938 -84.43464851 37.32890129 C-79.29893233 32.16700541 -74.13474065 27.093018 -68.58680344 22.36969852 C-66.57023022 20.6290309 -64.73720668 18.75665247 -62.921875 16.80859375 C-48.50187686 1.65760435 -48.50187686 1.65760435 -38 -2 C-37.11054688 -2.36480469 -36.22109375 -2.72960937 -35.3046875 -3.10546875 C-24.2173779 -6.10664357 -10.16215688 -5.35033217 0 0 Z M-32.8500824 35.25553894 C-34.74406661 37.13807933 -36.62150344 39.03095275 -38.48999023 40.93823242 C-39.53113277 41.98242517 -40.57338922 43.02550825 -41.6166687 44.06756592 C-44.43989624 46.89362454 -47.2475198 49.73473964 -50.05271792 52.5786798 C-52.99850159 55.55954883 -55.95895234 58.52577645 -58.91798401 61.4934845 C-64.52444067 67.12063379 -70.11846187 72.7599715 -75.70773607 78.40418273 C-83.89362674 86.66953687 -92.0968444 94.91766525 -100.301507 103.16438007 C-100.90525432 103.77123825 -101.50900164 104.37809642 -102.13104433 105.00334424 C-103.33581796 106.21432533 -104.5406223 107.42527586 -105.74545819 108.636195 C-109.25697096 112.16629781 -112.76450529 115.70029324 -116.2685107 119.23784769 C-118.4569658 121.44663566 -120.64743246 123.65342189 -122.83823776 125.85987854 C-123.84690661 126.87674746 -124.85466419 127.89452131 -125.86139488 128.9133091 C-130.75821804 133.86819671 -135.69116962 138.6740584 -140.97884083 143.2088747 C-145.14677008 146.90244007 -149.03230655 150.89400711 -152.96435547 154.83496094 C-153.93744172 155.80668906 -154.9107399 156.77820501 -155.88423157 157.74952698 C-158.50390485 160.3646779 -161.12044939 162.98293764 -163.73626852 165.60194302 C-166.48178321 168.35000472 -169.22975417 171.09560857 -171.97732544 173.84161377 C-176.58368715 178.44616213 -181.18794935 183.05280196 -185.79101562 187.66064453 C-191.11175796 192.98684406 -196.4361149 198.30940987 -201.76233184 203.63013434 C-206.34437071 208.20763755 -210.92446101 212.78708358 -215.50292313 217.3681643 C-218.23380371 220.10060307 -220.96535363 222.83236352 -223.69866562 225.5623703 C-226.2635032 228.12432205 -228.82588752 230.68870232 -231.38638878 233.25498772 C-232.77504644 234.64559988 -234.16616921 236.03374903 -235.55735779 237.42182922 C-236.38154709 238.24883835 -237.20573639 239.07584747 -238.05490112 239.92791748 C-238.77272703 240.64612041 -239.49055294 241.36432335 -240.23013115 242.10429001 C-243.5278807 245.63651601 -244.25060185 247.97961495 -244.4609375 252.76953125 C-243.18275803 258.95462003 -237.65296485 263.62916744 -233.33886719 267.90405273 C-232.67813705 268.56668121 -232.01740692 269.22930969 -231.33665466 269.91201782 C-229.16157636 272.09078593 -226.97940525 274.26229251 -224.796875 276.43359375 C-223.27439476 277.95488061 -221.75228541 279.47653872 -220.23052979 280.99855042 C-217.04267698 284.18484121 -213.85150051 287.36775196 -210.65771484 290.5480957 C-206.57975175 294.60910577 -202.50836519 298.67663027 -198.43925095 302.74650478 C-195.29613548 305.88934719 -192.15041146 309.02956769 -189.00382233 312.16893196 C-187.50264763 313.66694116 -186.00206314 315.16554207 -184.50209808 316.6647625 C-182.39679485 318.76787746 -180.28821835 320.86765578 -178.17871094 322.96655273 C-177.56855637 323.57716049 -176.95840179 324.18776825 -176.32975769 324.81687927 C-173.39024212 327.73499312 -170.40572293 330.54193164 -167.25994873 333.23707581 C-161.79775461 337.96657448 -156.75482073 343.12166876 -151.66210938 348.24023438 C-150.54114306 349.36312352 -149.41994615 350.4857825 -148.29853821 351.60823059 C-145.89796556 354.01194679 -143.4989511 356.41720328 -141.10115051 358.82368469 C-137.30373444 362.63470634 -133.50243267 366.44183652 -129.70056152 370.24841309 C-120.94552279 379.01545735 -112.1955201 387.78752223 -103.44556427 396.55963898 C-95.42116237 404.60425986 -87.39568263 412.6477977 -79.36613512 420.68728304 C-75.59275446 424.46562332 -71.82182022 428.24638279 -68.05278778 432.02906036 C-65.70167378 434.38767283 -63.34845462 436.74417647 -60.9946804 439.1001339 C-59.9102771 440.18639732 -58.82673246 441.27351879 -57.74415016 442.36159706 C-52.52538257 447.60600601 -47.29245358 452.78065453 -41.64551544 457.56903839 C-38.06516559 460.68255714 -34.88393852 464.21294439 -31.61328125 467.64453125 C-28.04617975 470.85972139 -25.35099079 471.84988991 -20.625 472.375 C-16.23001135 471.920346 -13.22737294 471.08669258 -10 468 C-8.21454601 465.06839974 -7.15432197 462.43623582 -7 459 C-8.97938617 451.92203252 -12.31403041 447.98930691 -17.51574707 442.91662598 C-18.28798504 442.14364371 -19.06022302 441.37066144 -19.85586214 440.57425547 C-22.43974165 437.99384116 -25.04102886 435.43173011 -27.64257812 432.86914062 C-29.50130744 431.02000963 -31.35889977 429.16973515 -33.21543884 427.31840515 C-37.21167228 423.33657862 -41.21666235 419.36374124 -45.2275238 415.39665222 C-51.03227004 409.65479062 -56.82067892 403.89667731 -62.60479766 398.13404518 C-71.99812813 388.77602193 -81.40074395 379.42739215 -90.81103516 370.08642578 C-91.37377791 369.52782209 -91.93652067 368.96921839 -92.51631624 368.39368731 C-96.51062945 364.42887494 -100.50527595 360.46439843 -104.5 356.5 C-109.06321824 351.97142306 -113.62628561 347.44269424 -118.18896484 342.91357422 C-118.75102263 342.35565707 -119.31308041 341.79773992 -119.89217025 341.22291619 C-129.26783294 331.9157139 -138.63365537 322.59866949 -147.99251699 313.2745738 C-153.76177805 307.52769724 -159.53976342 301.78986694 -165.3293494 296.06346548 C-169.76483013 291.67514381 -174.18752809 287.27414697 -178.60568428 282.86838722 C-180.41897931 281.06445589 -182.23659332 279.26485405 -184.05880547 277.46993065 C-186.5456414 275.01917308 -189.0165906 272.55341472 -191.48425293 270.08337402 C-192.57115945 269.02342972 -192.57115945 269.02342972 -193.68002367 267.94207239 C-198.51985043 263.05204362 -201.61598553 258.53835282 -202.21484375 251.4609375 C-202.07755859 250.42839844 -202.07755859 250.42839844 -201.9375 249.375 C-201.86402344 248.68148437 -201.79054687 247.98796875 -201.71484375 247.2734375 C-199.81020014 241.21604633 -195.10493412 236.81945658 -190.70605469 232.46313477 C-189.77348091 231.52771347 -189.77348091 231.52771347 -188.82206726 230.57339478 C-186.7768483 228.52448826 -184.7245458 226.48284502 -182.671875 224.44140625 C-181.23907568 223.00980047 -179.8066474 221.57782325 -178.37457275 220.14549255 C-175.37503319 217.14751463 -172.37217309 214.15291721 -169.36669922 211.16088867 C-165.53087345 207.34201357 -161.7016238 203.51662838 -157.87464523 199.6888895 C-154.91682209 196.73133953 -151.95638988 193.7764128 -148.9950943 190.82234001 C-147.58323537 189.41364466 -146.17196491 188.00435925 -144.76131439 186.59445381 C-142.78054135 184.61587126 -140.7964957 182.64062843 -138.81152344 180.66625977 C-138.23877182 180.09305496 -137.6660202 179.51985016 -137.07591248 178.92927551 C-134.203926 176.07947372 -131.27756965 173.34812381 -128.20831299 170.71128845 C-123.18791759 166.36160393 -118.53723347 161.66139817 -113.85546875 156.953125 C-112.86258002 155.9583127 -111.86946012 154.96373108 -110.87612915 153.96936035 C-108.75220616 151.84229742 -106.62984157 149.71369641 -104.50869751 147.5838623 C-101.14815529 144.20969544 -97.78371065 140.8394375 -94.41870117 137.46972656 C-87.27615449 130.31612175 -80.13785296 123.15828775 -73 116 C-65.29170083 108.26963292 -57.58265734 100.54001682 -49.8687067 92.81528854 C-46.53019259 89.47182049 -43.19412519 86.12593663 -39.85997009 82.77812195 C-37.77872729 80.68937098 -35.6953708 78.60273781 -33.61146164 76.51664734 C-32.19910597 75.10155545 -30.78927495 73.68394515 -29.37954712 72.26623535 C-24.96565526 67.8519807 -20.5100813 63.57894749 -15.72904968 59.56256104 C-11.54049899 55.77732214 -7.96581066 51.6041481 -6.9375 45.9375 C-7.01726479 40.9123181 -7.93082271 37.29447453 -11.36328125 33.48828125 C-19.02941172 26.57489744 -25.95194555 28.75703761 -32.8500824 35.25553894 Z " fill="#000000" transform="translate(381,4)"/>
</svg>
