<?xml version="1.0" encoding="UTF-8"?>
<svg version="1.1" xmlns="http://www.w3.org/2000/svg" width="512" height="512">
<path d="M0 0 C3.29764841 2.76351938 6.31954403 5.76140711 9.34890747 8.8140564 C10.2338545 9.6899412 11.11880153 10.56582601 12.03056514 11.46825278 C14.46256702 13.87944526 16.88544169 16.29916682 19.30466962 18.72313476 C21.92470714 21.34399361 24.55617747 23.95333333 27.18606567 26.56430054 C32.3284056 31.67352544 37.45969165 36.79371218 42.58661617 41.91840152 C46.75776257 46.0876419 50.93206377 50.25369732 55.10857773 54.41756058 C66.97103679 66.24482281 78.82510401 78.08040463 90.66847576 89.92678051 C91.30591099 90.56437556 91.94334621 91.20197061 92.60009766 91.85888672 C93.23831695 92.49726953 93.87653624 93.13565235 94.53409551 93.7933801 C104.87117272 104.13208213 115.22804643 114.45069595 125.59410085 124.76033644 C136.25888868 135.36754519 146.90856338 145.98972507 157.54287708 156.62748778 C163.5050312 162.59096556 169.47309514 168.54822769 175.45749283 174.48939133 C180.55362664 179.54894102 185.63544811 184.62235861 190.69979586 189.71373205 C193.27924409 192.30615999 195.86445248 194.89197716 198.46784973 197.46037292 C224.5066467 223.17076271 224.5066467 223.17076271 226 242 C226.07992188 242.74765625 226.15984375 243.4953125 226.2421875 244.265625 C226.99466084 257.63309258 222.22141213 270.88699351 213.47810745 280.8833065 C210.38409871 284.16330488 207.17773762 287.3294609 203.97119141 290.4987793 C202.75092323 291.71955719 201.53153088 292.94121108 200.3129425 294.16366577 C197.02226768 297.45972923 193.71939099 300.74330622 190.41395235 304.02455497 C186.94478163 307.47231902 183.48666457 310.93113688 180.02719116 314.3886261 C174.21842538 320.19095802 168.40233251 325.98585699 162.58105469 331.77563477 C155.12513961 339.1912556 147.68070652 346.61828954 140.24010658 354.04927349 C133.82182 360.45923654 127.39908969 366.8647415 120.97522688 373.26911569 C119.6015683 374.63873471 118.22805878 376.00850325 116.85469866 377.37842155 C112.93777106 381.28551426 109.01848622 385.19020935 105.0952816 389.0909996 C103.91096395 390.26923789 102.72744668 391.44828136 101.54482079 392.6282177 C96.1175898 398.04195764 90.68082227 403.3778442 84.85388374 408.36623669 C81.34658134 411.4571004 78.09636474 414.80811444 74.81494141 418.13500977 C74.03979691 418.91643341 73.2646524 419.69785706 72.46601868 420.50296021 C70.7959467 422.18679898 69.12695315 423.87170792 67.45894241 425.55758858 C64.8126704 428.2306927 62.16187779 430.89923347 59.50961304 433.56639099 C51.97313463 441.14543063 44.43913643 448.72684913 36.921875 456.32495117 C32.31170848 460.98459345 27.69087563 465.63350565 23.06400681 470.27656364 C21.31017239 472.04025832 19.55999036 473.80759319 17.81364822 475.57870674 C15.36630553 478.05999853 12.90659987 480.52839953 10.44384766 482.99438477 C9.73495895 483.71922562 9.02607025 484.44406647 8.29570007 485.19087219 C-2.48639839 495.9090491 -15.78109769 502.44875677 -31.0625 502.5625 C-44.61696182 502.36042081 -56.56376519 498.12134446 -66.6875 488.875 C-75.83642724 478.99069799 -79.9356652 467.10670013 -80.3125 453.75 C-79.2750544 429.17051952 -61.88882305 414.73616408 -45.64819336 398.53466797 C-44.00135158 396.88810867 -42.35473078 395.24132834 -40.70831299 393.59434509 C-36.26287636 389.14862287 -31.81437467 384.70597934 -27.36529613 380.26390219 C-23.17975069 376.0839934 -18.9965296 371.90176076 -14.81328828 367.71954621 C-6.53446622 359.44290592 1.74658059 351.16849533 10.02905273 342.89550781 C18.06864453 334.86511287 26.10717205 326.83365503 34.14428711 318.80078125 C34.88898273 318.05647971 34.88898273 318.05647971 35.64872272 317.29714178 C38.13964416 314.80752549 40.63054488 312.31788845 43.12143528 309.82824111 C63.74441053 289.21561119 84.37104534 268.60664573 105 248 C103.25663527 244.27499109 101.13731845 241.90127807 98.20239258 238.99121094 C97.71591248 238.50604507 97.22943237 238.02087921 96.72821045 237.52101135 C95.12153433 235.92081587 93.50799809 234.32772062 91.89453125 232.734375 C90.77021639 231.61633715 89.64641952 230.49777817 88.52311707 229.37872314 C85.5626377 226.4315428 82.59665364 223.48997063 79.62902832 220.54998779 C74.89634286 215.86039613 70.17021919 211.1642186 65.44754601 206.4645462 C63.80662926 204.83374434 62.1622805 203.20646517 60.51753235 201.57952881 C59.49309357 200.56193043 58.46877038 199.54421566 57.44458008 198.52636719 C56.56014725 197.65018738 55.67571442 196.77400757 54.76448059 195.87127686 C52.67850928 193.70472117 50.70595416 191.52507075 48.7474823 189.24847412 C44.57959045 184.44546017 40.10431007 179.97931972 35.59570312 175.49804688 C34.1890826 174.09366785 32.78246221 172.68928869 31.37584686 171.28490448 C29.87826072 169.79066782 28.3794332 168.29768688 26.88023376 166.80506897 C23.74129529 163.67976764 20.6062772 160.55055293 17.47180176 157.42077637 C10.81750741 150.77753506 4.15898212 144.13854192 -2.5 137.5 C-9.69144727 130.33062738 -16.88213928 123.16050667 -24.06794214 115.98547602 C-27.177248 112.88112039 -30.28896743 109.77921165 -33.40262604 106.67922211 C-34.87564607 105.21189766 -36.34749103 103.74340637 -37.8188324 102.2743988 C-39.60329714 100.49277767 -41.38953712 98.71293187 -43.17799377 96.93531799 C-47.44697832 92.66671017 -51.56328 88.33484342 -55.47550201 83.73561859 C-57.50887777 81.42065012 -59.70665829 79.30851935 -61.93408203 77.18261719 C-73.22533958 66.38228388 -79.72331625 54.80671037 -80.25 38.9375 C-80.05553854 24.6056901 -74.9340645 12.38802197 -65.12109375 2 C-46.64303657 -15.42314047 -19.98174964 -13.50451872 0 0 Z M-41.8125 30.75 C-44.32692632 34.4857191 -45 36.50851743 -45 41 C-43.00752548 48.48406011 -39.072854 52.62130881 -33.61645508 57.96704102 C-32.76079956 58.82503296 -31.90514404 59.6830249 -31.02355957 60.5670166 C-28.68713065 62.90477866 -26.34018064 65.23090044 -23.98758149 67.55231977 C-21.51756275 69.99463796 -19.0614684 72.45088439 -16.60368347 74.90550232 C-12.47339433 79.02660459 -8.33408121 83.13845006 -4.18823242 87.24389648 C1.63718908 93.01259505 7.44540526 98.7983813 13.25058973 104.58743393 C17.29394501 108.61828288 21.34135934 112.64505548 25.38956666 116.67103076 C26.36513097 117.64125333 27.34059377 118.61157798 28.31595397 119.58200574 C31.52994451 122.77935327 34.74860224 125.97194325 37.96948242 129.16235352 C38.76822281 129.95683395 39.5669632 130.75131439 40.38990784 131.56987 C43.83899205 134.97969163 47.30913801 138.31505102 50.98278809 141.48278809 C55.626978 145.48997304 59.95880581 149.78833264 64.3059082 154.11303711 C65.64642494 155.44128761 65.64642494 155.44128761 67.01402283 156.79637146 C69.94659539 159.70302764 72.87399445 162.6148635 75.80078125 165.52734375 C76.81483228 166.53602579 77.82888756 167.54470356 78.84294701 168.55337715 C83.05999079 172.74885227 87.27561834 176.94574192 91.48754597 181.14635372 C97.49803588 187.1405788 103.51688656 193.12612112 109.54759723 199.10000414 C113.8045375 203.31820265 118.0518109 207.54598195 122.29206532 211.78095251 C124.81835715 214.30360175 127.34860906 216.82194499 129.88930702 219.33009148 C132.72044527 222.12546058 135.53146149 224.94054726 138.34106445 227.75756836 C139.17797821 228.57807678 140.01489197 229.39858521 140.87716675 230.24395752 C146.0922673 235.51564305 149.32827409 239.89652147 150.3203125 247.43359375 C149.35015078 257.38745296 140.99618141 264.30140411 134.22428894 271.00276184 C133.47242902 271.75491948 132.72056909 272.50707713 131.94592553 273.28202742 C129.44808232 275.77849165 126.9431848 278.26775086 124.43823242 280.75708008 C122.63706679 282.554404 120.83635846 284.35218631 119.03607178 286.15039062 C115.17029556 290.00986201 111.30155385 293.86632142 107.43016624 297.72016335 C101.82973988 303.29539397 96.2358757 308.87717263 90.6437426 314.46072026 C81.56459538 323.52576237 72.48171766 332.58705601 63.39575195 341.64526367 C62.5815529 342.45697929 62.5815529 342.45697929 61.75090537 343.28509321 C57.89653408 347.12765961 54.04202972 350.97009252 50.1875 354.8125 C45.77570036 359.21043314 41.36396858 363.60843432 36.95239258 368.0065918 C36.1369171 368.8195829 36.1369171 368.8195829 35.30496737 369.64899806 C26.24527448 378.68133403 17.189498 387.71758674 8.13651544 396.75664824 C2.55619507 402.32800567 -3.02765786 407.89577752 -8.61610719 413.45898124 C-12.89152188 417.71557718 -17.16187486 421.97721356 -21.43037415 426.24074554 C-23.18385045 427.99046772 -24.93905971 429.73845513 -26.69609642 431.48460197 C-29.08841181 433.86255144 -31.47454288 436.24653793 -33.85920715 438.63215637 C-34.56065017 439.32640947 -35.26209319 440.02066256 -35.98479205 440.73595363 C-36.62191865 441.37582892 -37.25904524 442.01570422 -37.91547871 442.67496967 C-38.46683532 443.2244827 -39.01819193 443.77399573 -39.58625633 444.34016067 C-42.66343438 447.95299463 -43.46022641 451.12536156 -43.30859375 455.90625 C-42.77306625 459.53970239 -41.44570728 462.2657137 -39 465 C-34.53975237 467.74476777 -31.1413349 468.32358581 -26.08984375 467.71484375 C-19.29098243 465.38925193 -14.41859347 459.70315468 -9.48483276 454.74552917 C-8.64131669 453.90583865 -7.79780062 453.06614812 -6.92872345 452.20101243 C-4.59764049 449.87844442 -2.27107145 447.5514637 0.05361342 445.22249496 C2.56537462 442.70826295 5.08287307 440.19978661 7.59960938 437.6905365 C12.52544792 432.77743669 17.44580495 427.85888267 22.36410655 422.93823906 C26.36214406 418.93841747 30.36194571 414.94036832 34.36300278 410.94356728 C34.93275936 410.37440588 35.50251595 409.80524449 36.08953788 409.21883577 C37.24704657 408.06253885 38.40455645 406.90624311 39.56206749 405.74994854 C50.41271857 394.91016962 61.25684694 384.06388355 72.09901272 373.21561847 C82.01528887 363.2941723 91.93975505 353.38096524 101.86811592 343.47161349 C112.06674831 333.29235791 122.25980964 323.10755451 132.44687927 312.91672689 C138.16455632 307.1971377 143.88441302 301.47976996 149.61011124 295.76820946 C154.48385685 290.90637652 159.35231594 286.0393246 164.21405067 281.16547986 C166.69380833 278.67983303 169.17589993 276.19664365 171.66459274 273.71994019 C174.36298636 271.03197701 177.05198094 268.33494738 179.73880005 265.63542175 C180.52459131 264.85700477 181.31038258 264.07858779 182.1199857 263.27658242 C189.37261806 256.0712237 189.37261806 256.0712237 192.1875 246.5625 C189.4728225 238.41846751 181.30651553 232.15945368 175.34007263 226.19963074 C174.49302971 225.3496167 173.6459868 224.49960266 172.77327591 223.62383062 C170.44234157 221.28576787 168.10922485 218.94992434 165.77509606 216.6150533 C163.25048568 214.0885791 160.72872395 211.55926402 158.20654297 209.03036499 C152.70329271 203.5135906 147.19631883 198.0005435 141.6885097 192.48832107 C138.24774524 189.04478691 134.80771581 185.6005191 131.36781502 182.15612221 C121.83619034 172.61231787 112.30362903 163.06945127 102.76760769 153.53003979 C102.15856738 152.92077991 101.54952707 152.31152003 100.92203099 151.68379774 C100.31158621 151.07313468 99.70114143 150.46247163 99.07219833 149.83330363 C97.83532143 148.59598327 96.59844607 147.35866135 95.36157227 146.12133789 C94.74804738 145.50759158 94.1345225 144.89384526 93.50240595 144.26150057 C83.54620731 134.30134806 73.59678886 124.33445181 63.65024876 114.36465486 C53.42901441 104.11971484 43.2021712 93.88040199 32.96966034 83.64672452 C27.22807832 77.90422587 21.48893703 72.15933415 15.75597954 66.40822411 C10.87871845 61.5155734 5.99636283 56.62807965 1.1072691 51.74725177 C-1.38639644 49.2574953 -3.87757195 46.76537458 -6.36226463 44.26666069 C-9.05576183 41.558103 -11.76079024 38.86125401 -14.46705627 36.16545105 C-15.25023068 35.37422023 -16.0334051 34.58298942 -16.84031206 33.76778191 C-25.03859441 25.64363978 -32.37998413 21.52709559 -41.8125 30.75 Z " fill="#000000" transform="translate(183,10)"/>
</svg>
